# xmcd
#
# Track frame offsets:
#	150
#	16048
#	36816
#	53043
#	70267
#	88565
#	106072
#	122050
#	137272
#	151551
#	163520
#
# Disc length: 2375
#
# Revision: 3
# Processed by: cddbd v1.5.1PL0 Copyright (c) Steve Scherf et al.
# Submitted via: VisiTrax 2.9.5.180 - For more info visit www.synapsa.com
# Normalized: r2:DSETVAR1
#
DISCID=7409450b
DTITLE=Various Artist - CDX 333 December 2003
DYEAR=2003
DGENRE=Country
TTITLE0=Rachel Proctor - Didn't I
TTITLE1=Rascal Flatts - Mayberry
TTITLE2=Merle Haggard and Willie Nelson - Reno blues (Philadelphia lawyer)
TTITLE3=The Larkins and Dolly Parton - Steady as the rain
TTITLE4=Big and Rich - Wild West Show
TTITLE5=Keith Urban - You'll think of me
TTITLE6=The Rider - Doing fine y'all
TTITLE7=David Marshall - I feel a little Haggard tonight
TTITLE8=Katy Kiefer - My song
TTITLE9=Nancy Hays - One thin dime
TTITLE10=Martina McBride - In my daughter's eyes
EXTD=
EXTT0=
EXTT1=
EXTT2=
EXTT3=
EXTT4=
EXTT5=
EXTT6=
EXTT7=
EXTT8=
EXTT9=
EXTT10=
PLAYORDER=
